<?xml version="1.0" standalone="yes"?>
<svg xmlns="http://www.w3.org/2000/svg" width="143" height="107">
<path style="fill:#28242d; stroke:none;" d="M0 0L0 107L143 107L143 0L0 0z"/>
<path style="fill:#1e435b; stroke:none;" d="M45 7L67 4C60.89 1.27739 49.261 1.1234 45 7z"/>
<path style="fill:#0a82b8; stroke:none;" d="M43 9C59.6747 3.64501 69.6657 7.2208 85 14C77.4772 4.36002 51.8329 -2.21365 43 9z"/>
<path style="fill:#009fe3; stroke:none;" d="M48 6.86343C37.7043 10.1821 30.1107 17.9198 26.5557 28C25.2737 31.6349 25.6427 36.3803 23.4792 39.5947C20.5967 43.877 13.8583 45.3221 10.1294 49.119C0.6592 58.7618 0.439884 76.3219 10.146 85.8218C19.3411 94.8215 34.8603 97.741 47 99.2235C68.922 101.901 91.7177 102.293 113 95.0093C130.301 89.0881 146.821 70.7211 136.916 51.3058C134.057 45.7016 128.329 43.4082 124.516 38.8259C120.847 34.4155 120.759 28.9038 115.763 25.3492C107.462 19.4442 99.6553 25.1859 92.3705 21.6763C89.4224 20.256 87.6862 16.0762 84.9591 14.0635C74.9849 6.7023 60.2107 2.92746 48 6.86343z"/>
<path style="fill:#146187; stroke:none;" d="M29 21L43 9C36.5729 8.60957 31.3819 15.7182 29 21z"/>
<path style="fill:#155b7d; stroke:none;" d="M90 20C93.4546 24.6167 103.528 21.0008 109 21L109 20L90 20z"/>
<path style="fill:#175778; stroke:none;" d="M109 21L109 22L113 23L113 22L109 21z"/>
<path style="fill:#175576; stroke:none;" d="M27 24C24.7522 28.4245 24.4348 34.6156 21.8537 38.5427C19.3598 42.3369 13.4125 44.0679 10.0635 47.2103C2.19551 54.5931 2 62.9501 2 73L3 73C3.00558 65.2648 3.92349 57.0889 9.23817 51.0273C17.1104 42.0486 29.6086 38.9865 27 24z"/>
<path style="fill:#136389; stroke:none;" d="M120 28L120 32L121 32L120 28z"/>
<path style="fill:#69c6ef; stroke:none;" d="M55 33L55 34L61 36L55 33z"/>
<path style="fill:#3bb5e9; stroke:none;" d="M80 50C79.0835 42.9401 79.2393 36.635 87 34C78.7539 31.4439 75.1253 45.0786 80 50z"/>
<path style="fill:#4fbdec; stroke:none;" d="M54 52C51.8368 44.363 50.474 41.2427 55 34C48.2069 37.8047 48.5413 47.0927 54 52z"/>
<path style="fill:#b0e1f7; stroke:none;" d="M51 47L52 47C52.1242 41.4079 53.4055 37.8356 59 36C51.8933 32.133 51.0133 42.2052 51 47z"/>
<path style="fill:#dbf1fb; stroke:none;" d="M82 54C101.026 52.5526 84.4462 24.1609 80.5162 41.0042C80.1356 42.6353 80.0113 44.3278 80.1003 45.999C80.2484 48.7779 81.1785 51.368 82 54z"/>
<path style="fill:#ffffff; stroke:none;" d="M54 53C63.7272 52.0234 63.0031 43.6904 62 36C50.4238 36.2572 51.9207 44.2857 54 53M83 36L83 52C91.6593 51.036 91.0838 37.6202 83 36z"/>
<path style="fill:#90d6f2; stroke:none;" d="M81 37L79 47L80 47L81 37z"/>
<path style="fill:#1e4259; stroke:none;" d="M123 38L132 44L123 38z"/>
<path style="fill:#78cdf0; stroke:none;" d="M91 39L91 47L92 47L91 39z"/>
<path style="fill:#145e83; stroke:none;" d="M132 44L134 47L132 44z"/>
<path style="fill:#136289; stroke:none;" d="M134 47L136 50L134 47z"/>
<path style="fill:#98d8f3; stroke:none;" d="M60 50L54 53L54 54L62 50L60 50z"/>
<path style="fill:#51bdec; stroke:none;" d="M80 50L82 53L80 50z"/>
<path style="fill:#46b9ea; stroke:none;" d="M54 54L54 55L59 55L54 54z"/>
<path style="fill:#0b7bae; stroke:none;" d="M138 55L139 70L140 70L138 55z"/>
<path style="fill:#87d1f2; stroke:none;" d="M34 67L46 59C40.3405 57.279 36.3215 62.3919 34 67z"/>
<path style="fill:#65c5ee; stroke:none;" d="M94 63L95 63L100 59C96.2935 57.8365 94.7623 59.3947 94 63z"/>
<path style="fill:#ffffff; stroke:none;" d="M99 69L107 70C104.428 64.884 100.738 61.0917 95 60C96.9463 82.4054 43.9801 84.6633 46 59C42.6094 59.6451 32.8258 64.3916 35.3656 69.2828C36.5742 71.6103 42.7417 71.8413 45 73.3714C57.737 82.0012 91.596 89.7025 99 69z"/>
<path style="fill:#8fd5f3; stroke:none;" d="M46 59C45.3998 63.6966 44.576 67.2483 49 70L46 59z"/>
<path style="fill:#d2eefa; stroke:none;" d="M96 59L96 60L107 70L99 69L99 71L108 71C106.809 64.7411 102.259 60.1909 96 59z"/>
<path style="fill:#68c6ef; stroke:none;" d="M95 63L95 67L96 67L95 63z"/>
<path style="fill:#74cbef; stroke:none;" d="M33 67C34.229 73.12 39.8175 73.0741 45 75L33 67z"/>
<path style="fill:#77cbf0; stroke:none;" d="M80 76L94 69C89.4082 68.3812 82.6893 72.3224 80 76z"/>
<path style="fill:#b4e3f7; stroke:none;" d="M49 70L59 76L49 70z"/>
<path style="fill:#bfe7f8; stroke:none;" d="M42 71L56 81L42 71z"/>
<path style="fill:#79cdf0; stroke:none;" d="M95 76L107 72C102.119 70.1935 97.7165 71.5728 95 76z"/>
<path style="fill:#60c3ed; stroke:none;" d="M54 72L57 74L54 72z"/>
<path style="fill:#27ade7; stroke:none;" d="M57 73L57 74C63.7459 77.3558 75.2541 77.3558 82 74L57 73z"/>
<path style="fill:#136289; stroke:none;" d="M137 74C129.747 89.9967 115.489 93.6935 100 98L100 99C111.307 98.5235 140.188 89.6889 137 74z"/>
<path style="fill:#b4e2f7; stroke:none;" d="M84 81L95 76L84 81z"/>
<path style="fill:#65c5ef; stroke:none;" d="M59 76L59 77L76 77L59 76z"/>
<path style="fill:#3db6e9; stroke:none;" d="M50 79L50 80L55 82L50 79z"/>
<path style="fill:#7dcef1; stroke:none;" d="M55 81L55 82L61 83L55 81z"/>
<path style="fill:#caebf9; stroke:none;" d="M59 81L59 82L80 83L59 81z"/>
<path style="fill:#3cb5ea; stroke:none;" d="M63 84L63 85L85 82L63 84z"/>
<path style="fill:#17587a; stroke:none;" d="M7 83C11.8308 92.5533 26.7535 98.079 37 99L37 97C25.7964 96.0299 15.8783 89.2893 7 83z"/>
<path style="fill:#85d1f2; stroke:none;" d="M61 83L61 84L78 84L61 83z"/>
<path style="fill:#1c455f; stroke:none;" d="M38 99L38 100C49.3359 104.06 63.0304 105 75 105L75 103L38 99z"/>
<path style="fill:#0a7eb3; stroke:none;" d="M42 99L42 100L86 102L60 100.989L42 99z"/>
<path style="fill:#14628a; stroke:none;" d="M86 101L86 102L99 101L99 99L86 101z"/>
<path style="fill:#1f4156; stroke:none;" d="M75 102L75 103L91 103L75 102z"/>
</svg>
